<svg width="35" height="35" viewBox="0 0 35 35" fill="none" xmlns="http://www.w3.org/2000/svg">
<path fill-rule="evenodd" clip-rule="evenodd" d="M23.6668 12.8747C23.6668 14.5102 23.0171 16.0787 21.8607 17.2352C20.7042 18.3916 19.1357 19.0413 17.5002 19.0413C15.8647 19.0413 14.2961 18.3916 13.1397 17.2352C11.9832 16.0787 11.3335 14.5102 11.3335 12.8747C11.3335 11.2392 11.9832 9.67066 13.1397 8.51418C14.2961 7.35771 15.8647 6.70801 17.5002 6.70801C19.1357 6.70801 20.7042 7.35771 21.8607 8.51418C23.0171 9.67066 23.6668 11.2392 23.6668 12.8747ZM20.5835 12.8747C20.5835 13.6924 20.2586 14.4767 19.6804 15.0549C19.1022 15.6332 18.3179 15.958 17.5002 15.958C16.6824 15.958 15.8982 15.6332 15.3199 15.0549C14.7417 14.4767 14.4168 13.6924 14.4168 12.8747C14.4168 12.0569 14.7417 11.2727 15.3199 10.6944C15.8982 10.1162 16.6824 9.79134 17.5002 9.79134C18.3179 9.79134 19.1022 10.1162 19.6804 10.6944C20.2586 11.2727 20.5835 12.0569 20.5835 12.8747Z" fill="white"/>
<path fill-rule="evenodd" clip-rule="evenodd" d="M17.5001 0.541504C8.13446 0.541504 0.541748 8.13421 0.541748 17.4998C0.541748 26.8655 8.13446 34.4582 17.5001 34.4582C26.8657 34.4582 34.4584 26.8655 34.4584 17.4998C34.4584 8.13421 26.8657 0.541504 17.5001 0.541504ZM3.62508 17.4998C3.62508 20.7219 4.72429 23.6881 6.56658 26.0438C7.86039 24.3447 9.52951 22.9677 11.4435 22.0205C13.3576 21.0732 15.4647 20.5813 17.6003 20.5832C19.7083 20.5812 21.7889 21.0604 23.6836 21.9842C25.5783 22.9081 27.2372 24.2522 28.5338 25.9143C29.8696 24.1623 30.769 22.1175 31.1575 19.9489C31.5461 17.7804 31.4127 15.5505 30.7684 13.4437C30.1241 11.3369 28.9874 9.41387 27.4523 7.83364C25.9172 6.25342 24.0279 5.06145 21.9407 4.35637C19.8535 3.65129 17.6283 3.45336 15.4494 3.77896C13.2706 4.10456 11.2005 4.94434 9.4106 6.22879C7.62069 7.51325 6.16237 9.20547 5.15631 11.1654C4.15025 13.1254 3.62536 15.2967 3.62508 17.4998ZM17.5001 31.3748C14.3149 31.3796 11.2259 30.2839 8.75575 28.273C9.75001 26.8496 11.0734 25.6875 12.6133 24.8855C14.1532 24.0834 15.864 23.6653 17.6003 23.6665C19.3149 23.6651 21.005 24.0728 22.5304 24.8558C24.0558 25.6387 25.3724 26.7743 26.3708 28.1682C23.8815 30.2443 20.7416 31.3794 17.5001 31.3748Z" fill="white"/>
</svg>
