<svg width="32" height="32" viewBox="0 0 32 32" fill="none" xmlns="http://www.w3.org/2000/svg">
<path d="M29.9643 15.3687L16.631 2.03534C16.4644 1.86978 16.2391 1.77686 16.0043 1.77686C15.7695 1.77686 15.5442 1.86978 15.3776 2.03534L2.04431 15.3687C1.89868 15.5387 1.82259 15.7575 1.83123 15.9812C1.83987 16.2049 1.93261 16.4171 2.09092 16.5754C2.24922 16.7337 2.46144 16.8264 2.68515 16.8351C2.90886 16.8437 3.12759 16.7676 3.29764 16.622L15.9999 3.91978L28.7021 16.6309C28.8721 16.7765 29.0909 16.8526 29.3146 16.844C29.5383 16.8353 29.7505 16.7426 29.9088 16.5843C30.0671 16.426 30.1599 16.2138 30.1685 15.9901C30.1771 15.7663 30.101 15.5476 29.9554 15.3776L29.9643 15.3687Z" fill="#474545"/>
<path d="M24.889 28.4444H20.4446V19.5555H11.5557V28.4444H7.11127V16L5.3335 17.7777V28.4444C5.3335 28.9159 5.5208 29.3681 5.8542 29.7015C6.18759 30.0349 6.63978 30.2222 7.11127 30.2222H13.3335V21.3333H18.6668V30.2222H24.889C25.3605 30.2222 25.8127 30.0349 26.1461 29.7015C26.4795 29.3681 26.6668 28.9159 26.6668 28.4444V17.5644L24.889 15.7866V28.4444Z" fill="#474545"/>
</svg>
