<svg width="24" height="21" viewBox="0 0 24 21" fill="none" xmlns="http://www.w3.org/2000/svg">
<path d="M23.7788 9.69076L21.3333 7.56492V1.96875C21.3333 1.7947 21.2631 1.62778 21.1381 1.50471C21.013 1.38164 20.8435 1.3125 20.6667 1.3125H18C17.8232 1.3125 17.6536 1.38164 17.5286 1.50471C17.4036 1.62778 17.3333 1.7947 17.3333 1.96875V4.08803L13.1158 0.422461C12.8542 0.189082 12.3554 0 12 0C11.6446 0 11.1475 0.189082 10.8858 0.422461L0.219167 9.69199C0.0877425 9.8227 0.00973671 9.99642 0 10.1801C0.00851538 10.3405 0.068142 10.4942 0.170417 10.6194L1.0625 11.5951C1.20153 11.7179 1.37663 11.7941 1.5625 11.8125C1.72364 11.7966 1.87749 11.7384 2.00792 11.6439L2.67042 11.0697V19.6875C2.67042 20.0356 2.81089 20.3694 3.06094 20.6156C3.31099 20.8617 3.65013 21 4.00375 21H20C20.3536 21 20.6928 20.8617 20.9428 20.6156C21.1929 20.3694 21.3333 20.0356 21.3333 19.6875V11.0693L21.9963 11.6435C22.1273 11.7379 22.2814 11.7962 22.4429 11.8125C22.6271 11.7935 22.8004 11.7173 22.9375 11.5947L23.8296 10.6181C23.9253 10.4897 23.9842 10.3382 24 10.1797C23.9809 9.99771 23.9034 9.82647 23.7788 9.69076ZM12 7.21875C12.5274 7.21875 13.043 7.3727 13.4815 7.66114C13.9201 7.94958 14.2618 8.35955 14.4637 8.83921C14.6655 9.31886 14.7183 9.84666 14.6154 10.3559C14.5125 10.8651 14.2586 11.3328 13.8856 11.6999C13.5127 12.067 13.0375 12.317 12.5202 12.4183C12.003 12.5196 11.4668 12.4676 10.9795 12.2689C10.4922 12.0703 10.0758 11.7338 9.78275 11.3021C9.48973 10.8704 9.33333 10.3629 9.33333 9.84375C9.33333 9.14756 9.61429 8.47988 10.1144 7.98759C10.6145 7.49531 11.2928 7.21875 12 7.21875ZM16.6667 18.375H7.33333C7.15652 18.375 6.98695 18.3059 6.86193 18.1828C6.73691 18.0597 6.66667 17.8928 6.66667 17.7188C6.66667 16.6745 7.08809 15.6729 7.83824 14.9345C8.58839 14.1961 9.6058 13.7812 10.6667 13.7812H13.3333C14.3942 13.7812 15.4116 14.1961 16.1618 14.9345C16.9119 15.6729 17.3333 16.6745 17.3333 17.7188C17.3333 17.8928 17.2631 18.0597 17.1381 18.1828C17.013 18.3059 16.8435 18.375 16.6667 18.375Z" fill="#817D7D"/>
</svg>
