<svg width="34" height="34" viewBox="0 0 34 34" fill="none" xmlns="http://www.w3.org/2000/svg">
<path d="M23.3752 16.9998H10.6252C9.846 16.9998 9.2085 17.6373 9.2085 18.4165V19.8332H24.7918V18.4165C24.7918 17.6373 24.1543 16.9998 23.3752 16.9998ZM10.271 12.0415H15.9377V14.8748H10.271V12.0415ZM18.0627 12.0415H23.7293V14.8748H18.0627V12.0415Z" fill="#817D7D"/>
<path d="M28.3335 2.8335H5.66683C4.1085 2.8335 2.8335 4.1085 2.8335 5.66683V28.3335C2.8335 29.8918 4.1085 31.1668 5.66683 31.1668H28.3335C29.8918 31.1668 31.1668 29.8918 31.1668 28.3335V5.66683C31.1668 4.1085 29.8918 2.8335 28.3335 2.8335ZM26.9168 24.0835H24.7918V21.9585H9.2085V24.0835H7.0835V18.6577C7.0835 17.7227 7.43766 16.8727 8.00433 16.221V12.7502C8.00433 11.1918 9.27933 9.91683 10.8377 9.91683H15.5835C16.1077 9.91683 16.6035 10.0868 17.0002 10.3702C17.3968 10.0868 17.8927 9.91683 18.4168 9.91683H23.1627C24.721 9.91683 25.996 11.1918 25.996 12.7502V16.221C26.5627 16.8727 26.9168 17.7227 26.9168 18.6577V24.0835Z" fill="#817D7D"/>
</svg>
